# xmcd
#
# Track frame offsets: 
#        150
#        17100
#        33975
#        53250
#        69525
#        86775
#        105075
#        119625
#        139200
#        159225
#        176550
#        195075
#        216225
#
# Disc length: 3076 seconds
#
# Revision: 0
# Processed by: cddbd v1.5.2PL0 Copyright (c) Steve Scherf et al.
# Submitted via: ExactAudioCopy v1.0b3
#
DISCID=a40c020d
DTITLE=Malú - Dual [CD 1)
DYEAR=2012
DGENRE=Pop
TTITLE0=Ahora Tú
TTITLE1=Sólo El Amor Nos Salvará (con Aleks Syntek)
TTITLE2=Cuando Digo Tu Nombre (con Leonel García)
TTITLE3=Amigo (con Melendi)
TTITLE4=Linda (con Miguel Bosé)
TTITLE5=Devuélveme La Vida (con Antonio Orozco)
TTITLE6=No (con Armando Manzanero)
TTITLE7=Sueño De Amor (Al Alba) (con Pepe de Lucía)
TTITLE8=Callados (con Yahir)
TTITLE9=Enamorada (con David de María)
TTITLE10=No Te Pude Retener (con Vanesa Martín)
TTITLE11=Se Nos Rompió El Amor (con Rocío Jurado)
TTITLE12=Viviendo Deprisa (con Paco León)
EXTD=
EXTT0=
EXTT1=
EXTT2=
EXTT3=
EXTT4=
EXTT5=
EXTT6=
EXTT7=
EXTT8=
EXTT9=
EXTT10=
EXTT11=
EXTT12=
PLAYORDER=
